<mxfile host="app.diagrams.net" modified="2020-10-06T07:24:32.073Z" agent="5.0 (X11)" etag="fY2GtvGyUElx4KIFkiIV" version="13.7.3" type="github">
  <diagram id="F-RFFmZH9w4QIyTJf53x" name="Page-1">
    <mxGraphModel dx="723" dy="379" grid="1" gridSize="10" guides="1" tooltips="1" connect="1" arrows="1" fold="1" page="1" pageScale="1" pageWidth="850" pageHeight="1100" math="0" shadow="0">
      <root>
        <mxCell id="0" />
        <mxCell id="1" parent="0" />
        <mxCell id="js7K2ZC_KKVjjp7KWJBL-1" value="Produsen &#xa;Bahan Baku" style="swimlane;startSize=40;horizontal=0;shadow=1;" vertex="1" parent="1">
          <mxGeometry x="40" y="120" width="760" height="200" as="geometry" />
        </mxCell>
        <mxCell id="js7K2ZC_KKVjjp7KWJBL-2" value="Produsen Farmasi" style="swimlane;startSize=20;horizontal=0;shadow=1;" vertex="1" parent="1">
          <mxGeometry x="40" y="360" width="760" height="200" as="geometry" />
        </mxCell>
        <mxCell id="js7K2ZC_KKVjjp7KWJBL-31" value="" style="shape=mxgraph.bpmn.shape;html=1;verticalLabelPosition=bottom;labelBackgroundColor=#ffffff;verticalAlign=top;align=center;perimeter=rhombusPerimeter;background=gateway;outlineConnect=0;outline=none;symbol=parallelGw;shadow=1;" vertex="1" parent="js7K2ZC_KKVjjp7KWJBL-2">
          <mxGeometry x="555" y="20" width="50" height="50" as="geometry" />
        </mxCell>
        <mxCell id="js7K2ZC_KKVjjp7KWJBL-3" value="Apotek &#xa;Rumah Sakit" style="swimlane;startSize=40;horizontal=0;shadow=1;" vertex="1" parent="1">
          <mxGeometry x="40" y="600" width="760" height="200" as="geometry" />
        </mxCell>
        <mxCell id="js7K2ZC_KKVjjp7KWJBL-4" value="Tenaga Kesehatan" style="swimlane;startSize=20;horizontal=0;shadow=1;" vertex="1" parent="1">
          <mxGeometry x="40" y="840" width="760" height="200" as="geometry" />
        </mxCell>
        <mxCell id="js7K2ZC_KKVjjp7KWJBL-5" value="&lt;font style=&quot;font-size: 21px&quot;&gt;&lt;b&gt;PROSES TRANSAKSI SUPPLY CHAIN DI BIDANG FARMASI&lt;br&gt;&lt;/b&gt;&lt;/font&gt;" style="text;html=1;align=center;verticalAlign=middle;resizable=0;points=[];autosize=1;" vertex="1" parent="1">
          <mxGeometry x="60" y="50" width="720" height="20" as="geometry" />
        </mxCell>
        <mxCell id="js7K2ZC_KKVjjp7KWJBL-12" style="edgeStyle=orthogonalEdgeStyle;rounded=0;orthogonalLoop=1;jettySize=auto;html=1;endArrow=classic;endFill=1;" edge="1" parent="1" source="js7K2ZC_KKVjjp7KWJBL-6" target="js7K2ZC_KKVjjp7KWJBL-7">
          <mxGeometry relative="1" as="geometry">
            <Array as="points">
              <mxPoint x="180" y="220" />
              <mxPoint x="180" y="190" />
              <mxPoint x="170" y="190" />
              <mxPoint x="170" y="170" />
            </Array>
          </mxGeometry>
        </mxCell>
        <mxCell id="js7K2ZC_KKVjjp7KWJBL-6" value="Start" style="shape=mxgraph.bpmn.shape;html=1;verticalLabelPosition=bottom;labelBackgroundColor=#ffffff;verticalAlign=top;align=center;perimeter=ellipsePerimeter;outlineConnect=0;outline=standard;symbol=general;shadow=1;" vertex="1" parent="1">
          <mxGeometry x="110" y="195" width="50" height="50" as="geometry" />
        </mxCell>
        <mxCell id="js7K2ZC_KKVjjp7KWJBL-13" style="edgeStyle=orthogonalEdgeStyle;rounded=0;orthogonalLoop=1;jettySize=auto;html=1;entryX=0;entryY=0.5;entryDx=0;entryDy=0;endArrow=classic;endFill=1;" edge="1" parent="1" source="js7K2ZC_KKVjjp7KWJBL-7" target="js7K2ZC_KKVjjp7KWJBL-8">
          <mxGeometry relative="1" as="geometry" />
        </mxCell>
        <mxCell id="js7K2ZC_KKVjjp7KWJBL-7" value="Menerima pesanan" style="shape=ext;rounded=1;html=1;whiteSpace=wrap;shadow=1;" vertex="1" parent="1">
          <mxGeometry x="190" y="140" width="100" height="60" as="geometry" />
        </mxCell>
        <mxCell id="js7K2ZC_KKVjjp7KWJBL-16" style="edgeStyle=orthogonalEdgeStyle;rounded=0;orthogonalLoop=1;jettySize=auto;html=1;entryX=0;entryY=0.5;entryDx=0;entryDy=0;endArrow=classic;endFill=1;" edge="1" parent="1" source="js7K2ZC_KKVjjp7KWJBL-8" target="js7K2ZC_KKVjjp7KWJBL-9">
          <mxGeometry relative="1" as="geometry" />
        </mxCell>
        <mxCell id="js7K2ZC_KKVjjp7KWJBL-8" value="Memproduksi barang mentah" style="shape=ext;rounded=1;html=1;whiteSpace=wrap;shadow=1;" vertex="1" parent="1">
          <mxGeometry x="320" y="230" width="100" height="60" as="geometry" />
        </mxCell>
        <mxCell id="js7K2ZC_KKVjjp7KWJBL-17" style="edgeStyle=orthogonalEdgeStyle;rounded=0;orthogonalLoop=1;jettySize=auto;html=1;entryX=0;entryY=0.5;entryDx=0;entryDy=0;endArrow=classic;endFill=1;" edge="1" parent="1" source="js7K2ZC_KKVjjp7KWJBL-9" target="js7K2ZC_KKVjjp7KWJBL-10">
          <mxGeometry relative="1" as="geometry" />
        </mxCell>
        <mxCell id="js7K2ZC_KKVjjp7KWJBL-9" value="Membuat QR Code" style="shape=ext;rounded=1;html=1;whiteSpace=wrap;shadow=1;" vertex="1" parent="1">
          <mxGeometry x="450" y="140" width="100" height="60" as="geometry" />
        </mxCell>
        <mxCell id="js7K2ZC_KKVjjp7KWJBL-18" style="edgeStyle=orthogonalEdgeStyle;rounded=0;orthogonalLoop=1;jettySize=auto;html=1;endArrow=classic;endFill=1;" edge="1" parent="1" source="js7K2ZC_KKVjjp7KWJBL-10" target="js7K2ZC_KKVjjp7KWJBL-11">
          <mxGeometry relative="1" as="geometry" />
        </mxCell>
        <mxCell id="js7K2ZC_KKVjjp7KWJBL-10" value="Simpan catatan informasi" style="shape=ext;rounded=1;html=1;whiteSpace=wrap;shadow=1;" vertex="1" parent="1">
          <mxGeometry x="580" y="230" width="100" height="60" as="geometry" />
        </mxCell>
        <mxCell id="js7K2ZC_KKVjjp7KWJBL-11" value="" style="shape=mxgraph.bpmn.shape;html=1;verticalLabelPosition=bottom;labelBackgroundColor=#ffffff;verticalAlign=top;align=center;perimeter=ellipsePerimeter;outlineConnect=0;outline=end;symbol=message;shadow=1;" vertex="1" parent="1">
          <mxGeometry x="720" y="190" width="50" height="50" as="geometry" />
        </mxCell>
        <mxCell id="js7K2ZC_KKVjjp7KWJBL-35" style="edgeStyle=orthogonalEdgeStyle;rounded=0;orthogonalLoop=1;jettySize=auto;html=1;endArrow=classic;endFill=1;" edge="1" parent="1" source="js7K2ZC_KKVjjp7KWJBL-19" target="js7K2ZC_KKVjjp7KWJBL-20">
          <mxGeometry relative="1" as="geometry">
            <Array as="points">
              <mxPoint x="130" y="460" />
              <mxPoint x="130" y="430" />
              <mxPoint x="105" y="430" />
              <mxPoint x="105" y="410" />
            </Array>
          </mxGeometry>
        </mxCell>
        <mxCell id="js7K2ZC_KKVjjp7KWJBL-19" value="" style="shape=mxgraph.bpmn.shape;html=1;verticalLabelPosition=bottom;labelBackgroundColor=#ffffff;verticalAlign=top;align=center;perimeter=ellipsePerimeter;outlineConnect=0;outline=catching;symbol=message;shadow=1;" vertex="1" parent="1">
          <mxGeometry x="70" y="435" width="50" height="50" as="geometry" />
        </mxCell>
        <mxCell id="js7K2ZC_KKVjjp7KWJBL-36" style="edgeStyle=orthogonalEdgeStyle;rounded=0;orthogonalLoop=1;jettySize=auto;html=1;endArrow=classic;endFill=1;" edge="1" parent="1" source="js7K2ZC_KKVjjp7KWJBL-20" target="js7K2ZC_KKVjjp7KWJBL-27">
          <mxGeometry relative="1" as="geometry" />
        </mxCell>
        <mxCell id="js7K2ZC_KKVjjp7KWJBL-20" value="Scan QR code" style="shape=ext;rounded=1;html=1;whiteSpace=wrap;shadow=1;" vertex="1" parent="1">
          <mxGeometry x="140" y="380" width="100" height="60" as="geometry" />
        </mxCell>
        <mxCell id="js7K2ZC_KKVjjp7KWJBL-38" style="edgeStyle=orthogonalEdgeStyle;rounded=0;orthogonalLoop=1;jettySize=auto;html=1;endArrow=classic;endFill=1;entryX=0;entryY=0.5;entryDx=0;entryDy=0;" edge="1" parent="1" source="js7K2ZC_KKVjjp7KWJBL-24" target="js7K2ZC_KKVjjp7KWJBL-28">
          <mxGeometry relative="1" as="geometry">
            <Array as="points">
              <mxPoint x="330" y="405" />
              <mxPoint x="330" y="410" />
            </Array>
          </mxGeometry>
        </mxCell>
        <mxCell id="js7K2ZC_KKVjjp7KWJBL-50" style="edgeStyle=orthogonalEdgeStyle;rounded=0;orthogonalLoop=1;jettySize=auto;html=1;endArrow=classic;endFill=1;" edge="1" parent="1" source="js7K2ZC_KKVjjp7KWJBL-24" target="js7K2ZC_KKVjjp7KWJBL-49">
          <mxGeometry relative="1" as="geometry" />
        </mxCell>
        <mxCell id="js7K2ZC_KKVjjp7KWJBL-24" value="" style="shape=mxgraph.bpmn.shape;html=1;verticalLabelPosition=bottom;labelBackgroundColor=#ffffff;verticalAlign=top;align=center;perimeter=rhombusPerimeter;background=gateway;outlineConnect=0;outline=none;symbol=parallelGw;shadow=1;" vertex="1" parent="1">
          <mxGeometry x="270" y="380" width="50" height="50" as="geometry" />
        </mxCell>
        <mxCell id="js7K2ZC_KKVjjp7KWJBL-37" style="edgeStyle=orthogonalEdgeStyle;rounded=0;orthogonalLoop=1;jettySize=auto;html=1;entryX=0;entryY=0.5;entryDx=0;entryDy=0;endArrow=classic;endFill=1;" edge="1" parent="1" source="js7K2ZC_KKVjjp7KWJBL-27" target="js7K2ZC_KKVjjp7KWJBL-24">
          <mxGeometry relative="1" as="geometry" />
        </mxCell>
        <mxCell id="js7K2ZC_KKVjjp7KWJBL-27" value="Verifikasi bahan mentah" style="shape=ext;rounded=1;html=1;whiteSpace=wrap;shadow=1;" vertex="1" parent="1">
          <mxGeometry x="150" y="480" width="100" height="60" as="geometry" />
        </mxCell>
        <mxCell id="js7K2ZC_KKVjjp7KWJBL-39" style="edgeStyle=orthogonalEdgeStyle;rounded=0;orthogonalLoop=1;jettySize=auto;html=1;endArrow=classic;endFill=1;" edge="1" parent="1" source="js7K2ZC_KKVjjp7KWJBL-28" target="js7K2ZC_KKVjjp7KWJBL-29">
          <mxGeometry relative="1" as="geometry" />
        </mxCell>
        <mxCell id="js7K2ZC_KKVjjp7KWJBL-28" value="Menyimpan produk farmasi" style="shape=ext;rounded=1;html=1;whiteSpace=wrap;shadow=1;" vertex="1" parent="1">
          <mxGeometry x="350" y="380" width="100" height="60" as="geometry" />
        </mxCell>
        <mxCell id="js7K2ZC_KKVjjp7KWJBL-40" style="edgeStyle=orthogonalEdgeStyle;rounded=0;orthogonalLoop=1;jettySize=auto;html=1;endArrow=classic;endFill=1;" edge="1" parent="1" source="js7K2ZC_KKVjjp7KWJBL-29" target="js7K2ZC_KKVjjp7KWJBL-31">
          <mxGeometry relative="1" as="geometry">
            <Array as="points">
              <mxPoint x="580" y="410" />
              <mxPoint x="580" y="405" />
            </Array>
          </mxGeometry>
        </mxCell>
        <mxCell id="js7K2ZC_KKVjjp7KWJBL-29" value="Mengelola inventaris" style="shape=ext;rounded=1;html=1;whiteSpace=wrap;shadow=1;" vertex="1" parent="1">
          <mxGeometry x="470" y="380" width="100" height="60" as="geometry" />
        </mxCell>
        <mxCell id="js7K2ZC_KKVjjp7KWJBL-43" style="edgeStyle=orthogonalEdgeStyle;rounded=0;orthogonalLoop=1;jettySize=auto;html=1;endArrow=classic;endFill=1;" edge="1" parent="1" source="js7K2ZC_KKVjjp7KWJBL-30" target="js7K2ZC_KKVjjp7KWJBL-32">
          <mxGeometry relative="1" as="geometry" />
        </mxCell>
        <mxCell id="js7K2ZC_KKVjjp7KWJBL-30" value="Membuat senyawa obat" style="shape=ext;rounded=1;html=1;whiteSpace=wrap;shadow=1;" vertex="1" parent="1">
          <mxGeometry x="330" y="470" width="100" height="60" as="geometry" />
        </mxCell>
        <mxCell id="js7K2ZC_KKVjjp7KWJBL-44" style="edgeStyle=orthogonalEdgeStyle;rounded=0;orthogonalLoop=1;jettySize=auto;html=1;endArrow=classic;endFill=1;" edge="1" parent="1" source="js7K2ZC_KKVjjp7KWJBL-32" target="js7K2ZC_KKVjjp7KWJBL-33">
          <mxGeometry relative="1" as="geometry" />
        </mxCell>
        <mxCell id="js7K2ZC_KKVjjp7KWJBL-32" value="Mengemas produk farmasi" style="shape=ext;rounded=1;html=1;whiteSpace=wrap;shadow=1;" vertex="1" parent="1">
          <mxGeometry x="450" y="470" width="100" height="60" as="geometry" />
        </mxCell>
        <mxCell id="js7K2ZC_KKVjjp7KWJBL-53" style="edgeStyle=orthogonalEdgeStyle;rounded=0;orthogonalLoop=1;jettySize=auto;html=1;entryX=0.5;entryY=1;entryDx=0;entryDy=0;endArrow=classic;endFill=1;" edge="1" parent="1" source="js7K2ZC_KKVjjp7KWJBL-33" target="js7K2ZC_KKVjjp7KWJBL-51">
          <mxGeometry relative="1" as="geometry">
            <Array as="points">
              <mxPoint x="690" y="500" />
              <mxPoint x="690" y="540" />
              <mxPoint x="715" y="540" />
            </Array>
          </mxGeometry>
        </mxCell>
        <mxCell id="js7K2ZC_KKVjjp7KWJBL-33" value="Membuat QR code" style="shape=ext;rounded=1;html=1;whiteSpace=wrap;shadow=1;" vertex="1" parent="1">
          <mxGeometry x="570" y="470" width="100" height="60" as="geometry" />
        </mxCell>
        <mxCell id="js7K2ZC_KKVjjp7KWJBL-61" style="edgeStyle=orthogonalEdgeStyle;rounded=0;orthogonalLoop=1;jettySize=auto;html=1;endArrow=classic;endFill=1;" edge="1" parent="1" source="js7K2ZC_KKVjjp7KWJBL-34" target="js7K2ZC_KKVjjp7KWJBL-60">
          <mxGeometry relative="1" as="geometry" />
        </mxCell>
        <mxCell id="js7K2ZC_KKVjjp7KWJBL-34" value="Menyimpan catatan informasi" style="shape=ext;rounded=1;html=1;whiteSpace=wrap;shadow=1;" vertex="1" parent="1">
          <mxGeometry x="690" y="370" width="100" height="60" as="geometry" />
        </mxCell>
        <mxCell id="js7K2ZC_KKVjjp7KWJBL-42" style="edgeStyle=orthogonalEdgeStyle;rounded=0;orthogonalLoop=1;jettySize=auto;html=1;entryX=0;entryY=0.5;entryDx=0;entryDy=0;endArrow=classic;endFill=1;" edge="1" parent="1" source="js7K2ZC_KKVjjp7KWJBL-31" target="js7K2ZC_KKVjjp7KWJBL-30">
          <mxGeometry relative="1" as="geometry">
            <Array as="points">
              <mxPoint x="620" y="450" />
              <mxPoint x="310" y="450" />
              <mxPoint x="310" y="500" />
            </Array>
          </mxGeometry>
        </mxCell>
        <mxCell id="js7K2ZC_KKVjjp7KWJBL-49" value="" style="shape=mxgraph.bpmn.shape;html=1;verticalLabelPosition=bottom;labelBackgroundColor=#ffffff;verticalAlign=top;align=center;perimeter=ellipsePerimeter;outlineConnect=0;outline=end;symbol=general;shadow=1;" vertex="1" parent="1">
          <mxGeometry x="270" y="500" width="50" height="50" as="geometry" />
        </mxCell>
        <mxCell id="js7K2ZC_KKVjjp7KWJBL-54" style="edgeStyle=orthogonalEdgeStyle;rounded=0;orthogonalLoop=1;jettySize=auto;html=1;entryX=0;entryY=0.5;entryDx=0;entryDy=0;endArrow=classic;endFill=1;" edge="1" parent="1" source="js7K2ZC_KKVjjp7KWJBL-51" target="js7K2ZC_KKVjjp7KWJBL-34">
          <mxGeometry relative="1" as="geometry" />
        </mxCell>
        <mxCell id="js7K2ZC_KKVjjp7KWJBL-51" value="" style="shape=mxgraph.bpmn.shape;html=1;verticalLabelPosition=bottom;labelBackgroundColor=#ffffff;verticalAlign=top;align=center;perimeter=rhombusPerimeter;background=gateway;outlineConnect=0;outline=none;symbol=parallelGw;shadow=1;" vertex="1" parent="1">
          <mxGeometry x="690" y="470" width="50" height="50" as="geometry" />
        </mxCell>
        <mxCell id="js7K2ZC_KKVjjp7KWJBL-52" style="edgeStyle=orthogonalEdgeStyle;rounded=0;orthogonalLoop=1;jettySize=auto;html=1;endArrow=classic;endFill=1;" edge="1" parent="1" source="js7K2ZC_KKVjjp7KWJBL-31" target="js7K2ZC_KKVjjp7KWJBL-51">
          <mxGeometry relative="1" as="geometry">
            <Array as="points">
              <mxPoint x="660" y="405" />
              <mxPoint x="660" y="460" />
              <mxPoint x="680" y="460" />
              <mxPoint x="680" y="495" />
            </Array>
          </mxGeometry>
        </mxCell>
        <mxCell id="js7K2ZC_KKVjjp7KWJBL-60" value="" style="shape=mxgraph.bpmn.shape;html=1;verticalLabelPosition=bottom;labelBackgroundColor=#ffffff;verticalAlign=top;align=center;perimeter=ellipsePerimeter;outlineConnect=0;outline=end;symbol=message;shadow=1;" vertex="1" parent="1">
          <mxGeometry x="740" y="500" width="50" height="50" as="geometry" />
        </mxCell>
      </root>
    </mxGraphModel>
  </diagram>
</mxfile>
